<svg width="24" height="24" viewBox="0 0 24 24" fill="none" xmlns="http://www.w3.org/2000/svg">
<path d="M13.7268 7.12656C11.444 7.21094 5.78146 7.85313 5.78146 12.6344C5.78146 17.7672 12.2643 17.9781 14.383 14.6594C14.6877 15.1375 16.0424 16.4172 16.5065 16.8531L19.169 14.2281C19.169 14.2281 17.6549 13.0422 17.6549 11.7531V4.85781C17.6549 3.67188 16.5065 1 12.3908 1C8.26583 1 6.07677 3.57813 6.07677 5.88906L9.52208 6.20781C10.2861 3.8875 12.0627 3.8875 12.0627 3.8875C13.9705 3.88281 13.7268 5.28437 13.7268 7.12656V7.12656ZM13.7268 11.1953C13.7268 14.9453 9.77989 14.3828 9.77989 12.0016C9.77989 9.78906 12.1471 9.34375 13.7268 9.29219V11.1953V11.1953ZM20.1018 18.8594C19.7408 19.3281 16.8205 22 11.9221 22C7.02364 22 3.27364 18.6484 2.12521 17.2656C1.80646 16.9047 2.17208 16.7359 2.38302 16.8766C5.81896 18.9625 11.1861 22.3984 19.844 18.2969C20.1955 18.1234 20.4674 18.3906 20.1018 18.8594ZM21.9674 18.9625C21.6627 19.7031 21.2174 20.2188 20.9736 20.4156C20.7158 20.6266 20.5283 20.5422 20.669 20.2375C20.8096 19.9328 21.5736 18.0578 21.2643 17.6594C20.9596 17.2703 19.5299 17.4578 19.0143 17.5094C18.508 17.5563 18.4049 17.6031 18.358 17.4953C18.2502 17.2281 19.3752 16.7687 20.1158 16.675C20.8518 16.5906 22.0377 16.6375 22.2721 16.9422C22.4455 17.1813 22.2721 18.2125 21.9674 18.9625Z" fill="white"/>
</svg>
