<svg width="36" height="32" viewBox="0 0 36 32" fill="none" xmlns="http://www.w3.org/2000/svg">
<path d="M28.2162 15.2944H36V10.75H28.2162V15.2944ZM28.2162 4.42627V8.96814H36V4.42627H28.2162ZM28.2162 21.6175H36V17.075H28.2162V21.6175ZM0 27.9431H7.78375V23.4013H0V27.9431ZM9.40438 27.9431H17.1875V23.4013H9.40438V27.9431ZM18.8119 27.9431H26.5956V23.4013H18.8125L18.8119 27.9431ZM28.2162 27.9431H36V23.4013H28.2162V27.9431ZM18.8125 21.6175H26.5956V17.075H18.8125V21.6175ZM9.405 21.6175H17.1875V17.075H9.40438L9.405 21.6175ZM9.405 15.2944H17.1875V10.75H9.40438L9.405 15.2944Z" fill="white"/>
</svg>
