<svg width="24" height="24" viewBox="0 0 24 24" fill="none" xmlns="http://www.w3.org/2000/svg">
<path d="M17.625 7.5H12.75V14.6892L15.2198 12.2198C15.3616 12.0851 15.5505 12.0111 15.746 12.0136C15.9416 12.0161 16.1285 12.0949 16.2668 12.2332C16.4051 12.3715 16.4839 12.5584 16.4864 12.754C16.4889 12.9495 16.4149 13.1384 16.2802 13.2802L12.5302 17.0302C12.3895 17.1707 12.1988 17.2497 12 17.2497C11.8012 17.2497 11.6105 17.1707 11.4698 17.0302L7.71984 13.2802C7.58513 13.1384 7.51114 12.9495 7.51364 12.754C7.51614 12.5584 7.59495 12.3715 7.73325 12.2332C7.87155 12.0949 8.0584 12.0161 8.25398 12.0136C8.44955 12.0111 8.63836 12.0851 8.78016 12.2198L11.25 14.6892V7.5H6.375C5.67904 7.50074 5.01179 7.77754 4.51967 8.26967C4.02755 8.76179 3.75074 9.42904 3.75 10.125V19.875C3.75074 20.571 4.02755 21.2382 4.51967 21.7303C5.01179 22.2225 5.67904 22.4993 6.375 22.5H17.625C18.321 22.4993 18.9882 22.2225 19.4803 21.7303C19.9725 21.2382 20.2493 20.571 20.25 19.875V10.125C20.2493 9.42904 19.9725 8.76179 19.4803 8.26967C18.9882 7.77754 18.321 7.50074 17.625 7.5V7.5ZM12.75 2.25C12.75 2.05109 12.671 1.86032 12.5303 1.71967C12.3897 1.57902 12.1989 1.5 12 1.5C11.8011 1.5 11.6103 1.57902 11.4697 1.71967C11.329 1.86032 11.25 2.05109 11.25 2.25V7.5H12.75V2.25Z" fill="white"/>
</svg>
