<svg width="24" height="24" viewBox="0 0 24 24" fill="none" xmlns="http://www.w3.org/2000/svg">
<path d="M10.5844 17.2078L9.70312 14.8172C9.70312 14.8172 8.27344 16.4109 6.13125 16.4109C4.23281 16.4109 2.8875 14.7609 2.8875 12.1219C2.8875 8.74219 4.59375 7.53282 6.26719 7.53282C9.38437 7.53282 9.77344 10.0313 10.9969 13.8563C11.8781 16.5234 13.5281 18.6656 18.2812 18.6656C21.6891 18.6656 24 17.6203 24 14.8734C24 11.4563 21.0609 11.0953 18.6094 10.5563C17.4 10.2797 17.0438 9.78751 17.0438 8.96251C17.0438 8.02969 17.7844 7.47657 18.9938 7.47657C20.3156 7.47657 21.0281 7.97344 21.1359 9.15469L23.8828 8.82657C23.6625 6.35157 21.9563 5.33438 19.1531 5.33438C16.6781 5.33438 14.2594 6.26719 14.2594 9.26719C14.2594 11.1375 15.1688 12.3188 17.4469 12.8672C19.5516 13.3641 21.1875 13.5141 21.1875 15.0094C21.1875 16.0266 20.1984 16.4391 18.3281 16.4391C15.5531 16.4391 14.3953 14.9813 13.7391 12.975C12.2391 8.43751 11.6953 5.33438 6.17813 5.33438C2.14219 5.33438 0 7.88907 0 12.2344C0 16.4109 2.14219 18.6656 5.99531 18.6656C9.09844 18.6656 10.5844 17.2078 10.5844 17.2078Z" fill="white"/>
</svg>
