<svg width="24" height="24" viewBox="0 0 24 24" fill="none" xmlns="http://www.w3.org/2000/svg">
<g clip-path="url(#clip0_964_91)">
<path d="M12 0.375C5.58281 0.375 0.375 5.58281 0.375 12C0.375 18.4172 5.58281 23.625 12 23.625C18.4172 23.625 23.625 18.4172 23.625 12C23.625 5.58281 18.4172 0.375 12 0.375ZM16.7203 17.4797C16.5234 17.4797 16.4016 17.4187 16.2188 17.3109C13.2937 15.5484 9.89062 15.4734 6.52969 16.1625C6.34688 16.2094 6.10781 16.2844 5.97188 16.2844C5.51719 16.2844 5.23125 15.9234 5.23125 15.5438C5.23125 15.0609 5.51719 14.8312 5.86875 14.7562C9.70781 13.9078 13.6313 13.9828 16.9781 15.9844C17.2641 16.1672 17.4328 16.3312 17.4328 16.7578C17.4328 17.1844 17.1 17.4797 16.7203 17.4797V17.4797ZM17.9813 14.4047C17.7375 14.4047 17.5734 14.2969 17.4047 14.2078C14.475 12.4734 10.1062 11.775 6.22031 12.8297C5.99531 12.8906 5.87344 12.9516 5.6625 12.9516C5.16094 12.9516 4.75313 12.5437 4.75313 12.0422C4.75313 11.5406 4.99688 11.2078 5.47969 11.0719C6.78281 10.7062 8.11406 10.4344 10.0641 10.4344C13.1062 10.4344 16.0453 11.1891 18.3609 12.5672C18.7406 12.7922 18.8906 13.0828 18.8906 13.4906C18.8859 13.9969 18.4922 14.4047 17.9813 14.4047V14.4047ZM19.4344 10.8328C19.1906 10.8328 19.0406 10.7719 18.8297 10.65C15.4922 8.65781 9.525 8.17969 5.6625 9.25781C5.49375 9.30469 5.28281 9.37969 5.05781 9.37969C4.43906 9.37969 3.96562 8.89688 3.96562 8.27344C3.96562 7.63594 4.35938 7.275 4.78125 7.15313C6.43125 6.67031 8.27812 6.44062 10.2891 6.44062C13.7109 6.44062 17.2969 7.15312 19.9172 8.68125C20.2828 8.89219 20.5219 9.18281 20.5219 9.74063C20.5219 10.3781 20.0063 10.8328 19.4344 10.8328V10.8328Z" fill="white"/>
</g>
<defs>
<clipPath id="clip0_964_91">
<rect width="24" height="24" fill="white"/>
</clipPath>
</defs>
</svg>
