<svg width="24" height="24" viewBox="0 0 24 24" fill="none" xmlns="http://www.w3.org/2000/svg">
<g clip-path="url(#clip0_964_113)">
<path d="M24.0037 4.33874L23.9925 4.79624C22.9388 4.82624 22.305 5.38874 21.9 6.30749C20.9625 8.47499 18.0263 15.3075 16.0763 19.755H15.5663L12.495 12.5137C11.2763 14.8987 9.93375 17.3887 8.775 19.755C8.76375 19.7662 8.2125 19.755 8.2125 19.7437C6.45375 15.63 4.60875 11.5462 2.84625 7.42124C2.41875 6.41999 0.99375 4.79624 0.01125 4.80749C0.01125 4.69124 0 4.43249 0 4.27499H6.07125V4.79624C5.35125 4.83749 4.09125 5.29499 4.4475 6.07874C5.26875 7.94249 8.3325 15.09 9.1575 16.9012C9.72 15.7875 11.325 12.8062 11.9813 11.5462C11.46 10.485 9.78375 6.52499 9.25125 5.54624C8.8875 4.87874 7.8975 4.81874 7.15875 4.80749V4.28624L12.5025 4.29749V4.78874C11.775 4.81124 11.0738 5.08124 11.4 5.76749C12.1088 7.26749 12.5475 8.32124 13.2038 9.69374C13.4138 9.28874 14.505 7.09124 15.0075 5.91374C15.3413 5.14124 14.8613 4.84124 13.56 4.81124C13.5713 4.67624 13.56 4.42499 13.5712 4.30124C15.2363 4.28999 17.7375 4.28999 18.1875 4.27874V4.78874C17.3438 4.81874 16.47 5.26874 16.0088 5.97749L13.7888 10.5825C14.0288 11.1862 16.1625 15.9375 16.3838 16.4587L20.9738 5.86124C20.6513 4.99499 19.6087 4.80749 19.2038 4.79999V4.27874L23.9963 4.31999L24.0037 4.33874Z" fill="white"/>
</g>
<defs>
<clipPath id="clip0_964_113">
<rect width="24" height="24" fill="white"/>
</clipPath>
</defs>
</svg>
