<svg width="24" height="24" viewBox="0 0 24 24" fill="none" xmlns="http://www.w3.org/2000/svg">
<path d="M22.9051 6.50346C22.6434 5.51804 21.8723 4.74196 20.8932 4.47858C19.1187 4 12.0028 4 12.0028 4C12.0028 4 4.88696 4 3.11233 4.47858C2.13329 4.742 1.36221 5.51804 1.1005 6.50346C0.625 8.28958 0.625 12.0162 0.625 12.0162C0.625 12.0162 0.625 15.7428 1.1005 17.5289C1.36221 18.5143 2.13329 19.258 3.11233 19.5214C4.88696 20 12.0028 20 12.0028 20C12.0028 20 19.1186 20 20.8932 19.5214C21.8723 19.258 22.6434 18.5143 22.9051 17.5289C23.3806 15.7428 23.3806 12.0162 23.3806 12.0162C23.3806 12.0162 23.3806 8.28958 22.9051 6.50346ZM9.6755 15.3996V8.63271L15.623 12.0163L9.6755 15.3996Z" fill="white"/>
</svg>
