<svg width="54" height="72" viewBox="0 0 54 72" fill="none" xmlns="http://www.w3.org/2000/svg">
<g clip-path="url(#clip0_3401_320)">
<path fill-rule="evenodd" clip-rule="evenodd" d="M9.51356 46.4295C9.42755 47.2791 8.67306 47.9028 7.8206 47.8254C6.96273 47.7474 6.3305 46.9887 6.40848 46.1308L7.93563 46.2697C6.40848 46.1308 6.40862 46.1293 6.40862 46.1293L6.40877 46.1276L6.4091 46.1241L6.40985 46.1164L6.41177 46.0978C6.41325 46.084 6.41514 46.0674 6.41752 46.048C6.42229 46.0093 6.42905 45.9596 6.43849 45.899C6.45739 45.7779 6.48704 45.6137 6.53305 45.4078C6.6251 44.996 6.78239 44.4189 7.04941 43.689C7.58378 42.2283 8.55488 40.1634 10.3139 37.5925C12.026 35.0902 13.2291 33.5495 14.0207 32.6202C14.417 32.155 14.7132 31.8394 14.9216 31.6311C15.0259 31.5267 15.1089 31.4485 15.1722 31.3914C15.2038 31.3628 15.2307 31.3393 15.2529 31.3204C15.264 31.3109 15.2739 31.3026 15.2828 31.2953L15.2952 31.2851L15.3008 31.2805L15.3034 31.2784L15.3047 31.2774C15.3047 31.2774 15.306 31.2764 16.2803 32.4943L15.306 31.2764C15.9786 30.7382 16.9602 30.8473 17.4983 31.52C18.031 32.1859 17.9295 33.1545 17.2747 33.696C17.2725 33.6979 17.2688 33.7012 17.2636 33.7059C17.2426 33.7249 17.1977 33.7665 17.1273 33.8368C16.9864 33.9778 16.7464 34.2309 16.3954 34.643C15.6922 35.4685 14.5557 36.9172 12.8884 39.354C11.268 41.7224 10.4194 43.5568 9.97897 44.7607C9.75858 45.3631 9.63967 45.8096 9.57738 46.0883C9.54622 46.2277 9.52916 46.3254 9.52064 46.38C9.51638 46.4073 9.51425 46.4239 9.51356 46.4295Z" fill="#24214C"/>
<path d="M35.1309 20.2139C32.0303 19.8336 28.7552 20.0422 25.482 20.8304L24.9768 23.5587C25.2617 23.8066 25.4578 24.158 25.5028 24.5629C25.5839 25.2923 25.148 25.9601 24.4876 26.2006L24.3639 26.8685L25.5187 28.3367C25.9227 28.4027 26.2665 28.7055 26.3644 29.129C26.4931 29.686 26.1481 30.242 25.593 30.3745L25.5818 30.3775C25.5669 30.3815 25.5387 30.3895 25.4975 30.4024C25.4151 30.4281 25.2808 30.4735 25.0986 30.5463C24.7476 30.6867 24.2176 30.9295 23.5376 31.3307L22.2722 38.1645C25.6025 35.9738 29.5242 35.5522 32.472 36.9796L35.1309 20.2139Z" fill="#24214C"/>
<path fill-rule="evenodd" clip-rule="evenodd" d="M33.3783 37.4982L36.0973 20.3525C40.7235 21.1131 44.9094 23.2199 48.0467 26.7042C56.6927 36.3065 54.1011 52.7351 42.2582 63.3985C30.4154 74.0618 13.8059 74.922 5.15994 65.3197C-3.48603 55.7173 -0.894433 39.2888 10.9484 28.6254C15.0498 24.9325 19.723 22.4153 24.439 21.1013L24.0544 23.1784C23.9645 23.1726 23.873 23.1746 23.7804 23.1849L23.8827 24.1055C23.7802 23.1847 23.7793 23.185 23.7785 23.1851L23.7765 23.1853L23.7721 23.1858L23.7621 23.187L23.7368 23.1902C23.7177 23.1927 23.6941 23.196 23.666 23.2002C23.6098 23.2087 23.5358 23.221 23.4447 23.2384C23.2625 23.2734 23.0122 23.3291 22.6993 23.4165C22.0731 23.5914 21.1987 23.8925 20.1213 24.4067C17.9637 25.4361 15.0109 27.3104 11.6153 30.7064C9.56729 32.7547 7.7121 35.602 6.39582 37.8628C5.72971 39.0069 5.186 40.0281 4.80826 40.7645C4.61921 41.133 4.47125 41.431 4.36982 41.6385C4.31909 41.7423 4.27997 41.8235 4.25313 41.8796L4.22215 41.9446L4.21373 41.9625L4.21028 41.9698C3.84449 42.7497 4.17999 43.6788 4.95988 44.0446C5.73969 44.4104 6.66834 44.0748 7.03421 43.2951L7.03549 43.2924L7.04138 43.2799L7.06709 43.2259C7.09033 43.1774 7.12565 43.104 7.17236 43.0085C7.26583 42.8173 7.40478 42.5373 7.58379 42.1883C7.94218 41.4897 8.45923 40.5185 9.09164 39.4323C10.3724 37.2326 12.0652 34.6683 13.8212 32.9121C13.8701 32.8632 13.9188 32.8147 13.9675 32.7665L15.8846 35.2039C14.5783 36.6759 13.3734 38.5552 12.5041 40.0422C12.0603 40.8014 11.6968 41.4708 11.4438 41.9512C11.3172 42.1916 11.2181 42.3852 11.1501 42.5195C11.1161 42.5867 11.0899 42.6391 11.072 42.6752L11.0513 42.7169L11.0458 42.7282L11.0437 42.7325C11.0436 42.7326 11.0434 42.733 11.9776 43.1896L11.0437 42.7325C10.7916 43.2484 11.0052 43.8717 11.5211 44.1238C12.0371 44.3759 12.6597 44.162 12.9119 43.6461L12.9128 43.6443L12.9169 43.636L12.9344 43.6005C12.9502 43.5687 12.9742 43.5207 13.0058 43.4582C13.0691 43.333 13.1631 43.1497 13.2839 42.9202C13.5257 42.461 13.8743 41.8191 14.2995 41.0918C15.1571 39.6247 16.2983 37.859 17.4835 36.5355C19.3992 34.3964 21.0827 32.983 22.4102 32.0574L21.1223 39.0123C20.9678 39.1393 20.8152 39.2706 20.6646 39.4059C16.1649 43.4511 15.1761 49.688 18.456 53.3363C21.7358 56.9847 28.0424 56.6631 32.5421 52.6179C37.0417 48.5727 38.0306 42.3359 34.7507 38.6875C34.3379 38.2284 33.8772 37.8321 33.3783 37.4982ZM42.5208 43.6088L42.5195 43.6182L42.5165 43.6381L42.5133 43.6584C42.5075 43.6953 42.4979 43.7521 42.4837 43.8277C42.4552 43.9787 42.4081 44.2044 42.3345 44.4947C42.1873 45.0753 41.9344 45.9139 41.5136 46.9299C40.6732 48.9593 39.163 51.6969 36.4861 54.5039C33.7622 57.0662 31.5152 58.4646 29.9637 59.2207C29.1869 59.5993 28.5834 59.8173 28.1804 59.9398C27.9789 60.0011 27.8274 60.0385 27.7293 60.0602C27.6803 60.071 27.6446 60.0779 27.6226 60.0819L27.6001 60.0858L27.5985 60.0861L27.5975 60.0862C27.3316 60.1252 27.1462 60.3721 27.1843 60.6384C27.2224 60.9052 27.4696 61.0907 27.7365 61.0526L27.6675 60.5693C27.7365 61.0526 27.7362 61.0526 27.7365 61.0526L27.7378 61.0524L27.7394 61.0521L27.7437 61.0515L27.7561 61.0495L27.7753 61.0463L27.7968 61.0425C27.8308 61.0364 27.8787 61.027 27.94 61.0135C28.0625 60.9864 28.2385 60.9426 28.4644 60.8739C28.9165 60.7364 29.568 60.4996 30.3914 60.0983C32.0387 59.2955 34.3696 57.8368 37.1648 55.2058C37.1711 55.1998 37.1773 55.1937 37.1833 55.1874C39.9598 52.2787 41.5344 49.4312 42.4156 47.3035C42.8561 46.2399 43.1233 45.3562 43.2809 44.7346C43.3597 44.4237 43.4111 44.1783 43.4431 44.0084C43.4591 43.9235 43.4702 43.8574 43.4775 43.8116C43.4812 43.7887 43.4838 43.7708 43.4857 43.7581L43.4878 43.7429L43.4884 43.7383L43.4887 43.7362C43.4888 43.736 43.4888 43.7357 43.0048 43.6723L43.4887 43.7362C43.5238 43.4689 43.3355 43.2233 43.0682 43.1883C42.8011 43.1533 42.5561 43.3418 42.5208 43.6088ZM47.7507 43.1888C47.4837 43.152 47.2375 43.3384 47.2005 43.6053L47.2001 43.608L47.1981 43.6213L47.1937 43.6499L47.1889 43.6795C47.1802 43.7321 47.1663 43.8122 47.1459 43.9178C47.1052 44.129 47.0384 44.442 46.9359 44.8418C46.7307 45.6414 46.3821 46.7869 45.8108 48.1567C44.6681 50.896 42.6353 54.53 39.0766 58.0893C35.8372 61.3291 33.0737 63.0646 31.1369 63.9887C30.1681 64.451 29.4046 64.711 28.8899 64.8547C28.6326 64.9266 28.4372 64.9695 28.3094 64.994C28.2454 65.0063 28.1984 65.014 28.1689 65.0184C28.1541 65.0206 28.1437 65.0221 28.1378 65.0228L28.1335 65.0234C27.8659 65.0534 27.6725 65.2947 27.7023 65.5624C27.732 65.8304 27.9734 66.0235 28.2413 65.9937L28.1874 65.5085C28.2413 65.9937 28.241 65.9937 28.2413 65.9937L28.2427 65.9935L28.2445 65.9933L28.2494 65.9927L28.2643 65.9909C28.2765 65.9893 28.2932 65.987 28.3144 65.9838C28.3566 65.9774 28.4165 65.9675 28.4934 65.9528C28.6471 65.9233 28.8687 65.8743 29.1525 65.795C29.7204 65.6365 30.5367 65.3568 31.5573 64.8698C33.5994 63.8955 36.4531 62.0938 39.767 58.7795C43.4306 55.1154 45.5289 51.3683 46.7118 48.5325C47.3032 47.1147 47.666 45.9241 47.8815 45.0844C47.9892 44.6646 48.0602 44.3323 48.1045 44.1029C48.1266 43.9883 48.1421 43.8993 48.1522 43.838C48.1573 43.8074 48.161 43.7837 48.1635 43.7671L48.1663 43.7476L48.1672 43.7419L48.1675 43.7395C48.1675 43.7392 48.1676 43.739 47.684 43.6723L48.1675 43.7395C48.2043 43.4724 48.0178 43.2256 47.7507 43.1888Z" fill="#24214C"/>
<path d="M4.21028 41.9698C4.21018 41.97 4.21009 41.9702 5.62221 42.6325L4.21028 41.9698Z" fill="#24214C"/>
<path d="M31.5252 42.9502C31.1186 45.3966 30.9585 47.2205 30.1423 48.3254C29.3262 49.4304 28.2082 49.9112 26.4713 49.9112C25.505 49.9112 23.6745 49.9119 22.3322 48.5695C20.9898 47.2271 20.9898 45.5186 21.386 42.9502L27.2436 11.3176C27.2436 10.9072 27.2122 10.4968 27.1494 10.0864C27.0866 9.64446 26.9715 9.26562 26.8041 8.94993C26.6367 8.60266 26.4065 8.31854 26.1135 8.09755C25.8205 7.87657 25.4439 7.76608 24.9835 7.76608C24.5649 7.76608 24.1568 7.89235 23.7592 8.14491C23.3616 8.39746 22.9954 8.68159 22.6605 8.99728C22.2839 9.34455 21.9072 9.73916 21.5305 10.1811L20.7457 8.61845C23.3197 5.55622 25.6531 3.36214 27.7458 2.03623C29.8595 0.678742 31.8371 0 33.6787 0C34.7669 0 35.6563 0.489326 36.3469 1.46798C37.0375 2.41506 37.3828 3.93039 37.3828 6.01397L31.5252 42.9502Z" fill="#24214C"/>
</g>
<defs>
<clipPath id="clip0_3401_320">
<rect width="53.2068" height="72" fill="white"/>
</clipPath>
</defs>
</svg>
